<svg xmlns="http://www.w3.org/2000/svg" xmlns:xlink="http://www.w3.org/1999/xlink" width="123" zoomAndPan="magnify" viewBox="0 0 92.25 30.750001" height="41" preserveAspectRatio="xMidYMid meet" version="1.0"><defs><g/><clipPath id="9f58f8aabb"><path d="M 1.339844 1.144531 L 34 1.144531 L 34 29.414062 L 1.339844 29.414062 Z M 1.339844 1.144531 " clip-rule="nonzero"/></clipPath><clipPath id="17019258b2"><path d="M 81 6 L 91.507812 6 L 91.507812 24 L 81 24 Z M 81 6 " clip-rule="nonzero"/></clipPath></defs><g clip-path="url(#9f58f8aabb)"><path fill="#088178" d="M 16.421875 12.457031 C 17.066406 11.386719 17.382812 10.207031 17.382812 8.941406 C 17.382812 6.386719 15.980469 4.105469 13.824219 2.707031 C 12.410156 1.785156 10.664062 1.234375 8.785156 1.234375 L 1.339844 1.195312 L 1.339844 29.339844 L 9.550781 29.339844 C 11.078125 29.339844 12.519531 29.0625 13.824219 28.554688 C 17.613281 27.097656 20.28125 23.734375 20.28125 19.792969 C 20.28125 16.851562 18.824219 14.257812 16.421875 12.457031 Z M 7.792969 7.679688 L 8.785156 7.679688 C 10.117188 7.679688 10.925781 8.445312 10.925781 8.941406 C 10.925781 9.519531 10.089844 10.207031 8.824219 10.246094 L 7.792969 10.246094 Z M 9.550781 22.839844 L 7.792969 22.839844 L 7.792969 16.6875 L 9.550781 16.6875 C 11.847656 16.6875 13.824219 18.101562 13.824219 19.777344 C 13.824219 21.425781 11.832031 22.839844 9.550781 22.839844 Z M 33.710938 15.4375 C 33.710938 22.964844 27.875 28.914062 20.265625 29.339844 L 15.074219 29.339844 C 16.117188 28.855469 17.078125 28.226562 17.929688 27.457031 C 19.429688 26.125 20.484375 24.503906 21.035156 22.71875 C 24.621094 22.003906 27.257812 19.0625 27.257812 15.425781 C 27.257812 11.414062 24.207031 8.046875 20.265625 7.636719 L 20.265625 15.027344 C 19.6875 13.96875 18.90625 12.992188 17.929688 12.128906 C 18.355469 11.140625 18.578125 10.066406 18.578125 8.941406 C 18.578125 5.699219 16.667969 2.855469 13.808594 1.292969 L 13.808594 1.152344 L 20.265625 1.152344 L 20.265625 1.195312 C 27.765625 1.605469 33.710938 7.828125 33.710938 15.4375 Z M 33.710938 15.4375 " fill-opacity="1" fill-rule="nonzero"/></g><g fill="#088178" fill-opacity="1"><g transform="translate(32.62624, 23.81882)"><g><path d="M 1.71875 0 L 1.71875 -18.1875 L 8.078125 -18.1875 L 11.21875 -2.34375 L 11.6875 -2.34375 L 14.84375 -18.1875 L 21.203125 -18.1875 L 21.203125 0 L 17.875 0 L 17.875 -15.671875 L 17.40625 -15.671875 L 14.296875 0 L 8.625 0 L 5.515625 -15.671875 L 5.046875 -15.671875 L 5.046875 0 Z M 1.71875 0 "/></g></g></g><g fill="#088178" fill-opacity="1"><g transform="translate(55.530438, 23.81882)"><g><path d="M 5.828125 0.359375 C 4.898438 0.359375 4.070312 0.203125 3.34375 -0.109375 C 2.625 -0.429688 2.050781 -0.898438 1.625 -1.515625 C 1.195312 -2.128906 0.984375 -2.878906 0.984375 -3.765625 C 0.984375 -4.648438 1.195312 -5.390625 1.625 -5.984375 C 2.050781 -6.585938 2.640625 -7.039062 3.390625 -7.34375 C 4.140625 -7.644531 5 -7.796875 5.96875 -7.796875 L 9.515625 -7.796875 L 9.515625 -8.515625 C 9.515625 -9.128906 9.320312 -9.628906 8.9375 -10.015625 C 8.550781 -10.410156 7.945312 -10.609375 7.125 -10.609375 C 6.300781 -10.609375 5.691406 -10.421875 5.296875 -10.046875 C 4.898438 -9.671875 4.640625 -9.1875 4.515625 -8.59375 L 1.5 -9.609375 C 1.707031 -10.273438 2.039062 -10.878906 2.5 -11.421875 C 2.96875 -11.960938 3.585938 -12.398438 4.359375 -12.734375 C 5.128906 -13.078125 6.066406 -13.25 7.171875 -13.25 C 8.867188 -13.25 10.210938 -12.820312 11.203125 -11.96875 C 12.191406 -11.125 12.6875 -9.894531 12.6875 -8.28125 L 12.6875 -3.484375 C 12.6875 -2.960938 12.925781 -2.703125 13.40625 -2.703125 L 14.453125 -2.703125 L 14.453125 0 L 12.265625 0 C 11.617188 0 11.085938 -0.15625 10.671875 -0.46875 C 10.265625 -0.78125 10.0625 -1.195312 10.0625 -1.71875 L 10.0625 -1.734375 L 9.5625 -1.734375 C 9.488281 -1.523438 9.332031 -1.253906 9.09375 -0.921875 C 8.851562 -0.585938 8.472656 -0.289062 7.953125 -0.03125 C 7.429688 0.226562 6.722656 0.359375 5.828125 0.359375 Z M 6.390625 -2.28125 C 7.304688 -2.28125 8.054688 -2.535156 8.640625 -3.046875 C 9.222656 -3.554688 9.515625 -4.238281 9.515625 -5.09375 L 9.515625 -5.359375 L 6.203125 -5.359375 C 5.597656 -5.359375 5.125 -5.226562 4.78125 -4.96875 C 4.4375 -4.707031 4.265625 -4.34375 4.265625 -3.875 C 4.265625 -3.40625 4.445312 -3.019531 4.8125 -2.71875 C 5.175781 -2.425781 5.703125 -2.28125 6.390625 -2.28125 Z M 6.390625 -2.28125 "/></g></g></g><g fill="#088178" fill-opacity="1"><g transform="translate(70.54022, 23.81882)"><g><path d="M 1.8125 0 L 1.8125 -12.890625 L 5.046875 -12.890625 L 5.046875 -11.4375 L 5.515625 -11.4375 C 5.703125 -11.957031 6.015625 -12.335938 6.453125 -12.578125 C 6.898438 -12.816406 7.414062 -12.9375 8 -12.9375 L 9.5625 -12.9375 L 9.5625 -10.03125 L 7.953125 -10.03125 C 7.117188 -10.03125 6.429688 -9.804688 5.890625 -9.359375 C 5.359375 -8.921875 5.09375 -8.242188 5.09375 -7.328125 L 5.09375 0 Z M 1.8125 0 "/></g></g></g><g clip-path="url(#17019258b2)"><g fill="#088178" fill-opacity="1"><g transform="translate(80.823736, 23.81882)"><g><path d="M 6.75 0 C 5.90625 0 5.21875 -0.257812 4.6875 -0.78125 C 4.15625 -1.3125 3.890625 -2.019531 3.890625 -2.90625 L 3.890625 -10.1875 L 0.671875 -10.1875 L 0.671875 -12.890625 L 3.890625 -12.890625 L 3.890625 -16.890625 L 7.171875 -16.890625 L 7.171875 -12.890625 L 10.703125 -12.890625 L 10.703125 -10.1875 L 7.171875 -10.1875 L 7.171875 -3.484375 C 7.171875 -2.960938 7.414062 -2.703125 7.90625 -2.703125 L 10.390625 -2.703125 L 10.390625 0 Z M 6.75 0 "/></g></g></g></g></svg>